<?xml version="1.0" encoding="UTF-8"?>
<svg width="24px" height="24px" viewBox="0 0 24 24" version="1.1" xmlns="http://www.w3.org/2000/svg" xmlns:xlink="http://www.w3.org/1999/xlink">
    <!-- Generator: Sketch 41.2 (35397) - http://www.bohemiancoding.com/sketch -->
    <title>Github Icon</title>
    <desc>Created with Sketch.</desc>
    <defs></defs>
    <g id="Symbols" stroke="none" stroke-width="1" fill="none" fill-rule="evenodd">
        <g id="Main-Nav" transform="translate(-865.000000, -2.000000)" fill="#4C5859">
            <g transform="translate(0.000000, 2.000000)" id="Github-Icon">
                <path d="M865,12.305 C865,17.74 868.434,22.352 873.197,23.979 C873.797,24.091 874.015,23.712 874.015,23.386 C874.015,23.094 874.005,22.32 873.999,21.293 C870.665,22.037 869.962,19.644 869.962,19.644 C869.417,18.223 868.631,17.844 868.631,17.844 C867.543,17.081 868.713,17.096 868.713,17.096 C869.916,17.183 870.549,18.364 870.549,18.364 C871.618,20.244 873.354,19.701 874.037,19.386 C874.146,18.591 874.456,18.049 874.798,17.741 C872.136,17.431 869.339,16.375 869.339,11.661 C869.339,10.317 869.805,9.219 870.572,8.359 C870.449,8.048 870.038,6.797 870.69,5.103 C870.69,5.103 871.696,4.772 873.985,6.364 C874.942,6.091 875.967,5.955 876.986,5.95 C878.004,5.955 879.029,6.091 879.987,6.364 C882.275,4.772 883.279,5.103 883.279,5.103 C883.933,6.797 883.522,8.048 883.399,8.359 C884.167,9.219 884.631,10.317 884.631,11.661 C884.631,16.387 881.828,17.427 879.158,17.732 C879.589,18.112 879.972,18.863 879.972,20.01 C879.972,21.655 879.957,22.982 879.957,23.386 C879.957,23.714 880.173,24.098 880.781,23.978 C885.54,22.347 888.971,17.739 888.971,12.305 C888.971,5.509 883.604,0 876.985,0 C870.367,0 865,5.509 865,12.305 Z"></path>
            </g>
        </g>
    </g>
</svg>