<svg xmlns="http://www.w3.org/2000/svg" xmlns:xlink="http://www.w3.org/1999/xlink" version="1.1" id="Layer_1" x="0px" y="0px" width="100px" height="100px" viewBox="0 0 100 100" enable-background="new 0 0 100 100" xml:space="preserve">
<g transform="scale(-1, 1)  translate(-100,0)" style="fill:#C8C8C8">
  <path d="M54.691,9.382c-12.51-12.51-32.799-12.51-45.309,0s-12.51,32.798,0,45.309c11.551,11.552,29.715,12.408,42.281,2.635  l8.69,8.692v5.663L88.673,100L100,88.672L71.682,60.353h-5.663l-8.692-8.689C67.099,39.098,66.243,20.933,54.691,9.382z   M15.046,49.027c-9.382-9.383-9.382-24.601,0-33.981c9.381-9.382,24.599-9.382,33.981,0c9.381,9.381,9.381,24.598,0,33.981  C39.645,58.409,24.427,58.409,15.046,49.027z"/>
</g>
</svg>