<?xml version="1.0" encoding="UTF-8"?>
<svg width="23px" height="23px" viewBox="0 0 23 23" version="1.1" xmlns="http://www.w3.org/2000/svg" xmlns:xlink="http://www.w3.org/1999/xlink">
    <!-- Generator: sketchtool 41.2 (35397) - http://www.bohemiancoding.com/sketch -->
    <title>03589FCB-6826-4926-AF64-30E4494F96F7</title>
    <desc>Created with sketchtool.</desc>
    <defs></defs>
    <g id="Symbols" stroke="none" stroke-width="1" fill="none" fill-rule="evenodd">
        <g id="Main-Nav" transform="translate(-60.000000, -1.000000)" stroke="#4C5859" stroke-width="2" fill="#4C5859">
            <g transform="translate(0.000000, 2.000000)" id="Search-Icon">
                <path d="M66.0073891,8.40224957 C66.0073891,10.261802 66.6411558,11.9703507 67.6949481,13.3217499 L61.9678518,18.6399681 C61.9380275,18.6671148 61.9082032,18.6968066 61.8816927,18.728195 C61.4194159,19.2499216 61.4575247,20.0558408 61.9678518,20.5292123 C62.4773505,21.0025838 63.2643809,20.962712 63.7266578,20.4409853 L68.9202302,14.5764388 C70.239956,15.6546738 71.9084605,16.3044991 73.7244297,16.3044991 C77.9793648,16.3044991 81.4414703,12.7601515 81.4414703,8.40224957 C81.4414703,4.04519602 77.9793648,0.5 73.7244297,0.5 C69.4686662,0.5 66.0073891,4.04519602 66.0073891,8.40224957 Z M67.6659522,8.40224957 C67.6659522,4.98175894 70.3832784,2.19836861 73.7244297,2.19836861 C77.0647526,2.19836861 79.7829072,4.98175894 79.7829072,8.40224957 C79.7829072,11.8235885 77.0647526,14.6061305 73.7244297,14.6061305 C70.3832784,14.6061305 67.6659522,11.8235885 67.6659522,8.40224957 Z" transform="translate(71.500014, 10.679903) scale(-1, 1) translate(-71.500014, -10.679903) "></path>
            </g>
        </g>
    </g>
</svg>