<?xml version="1.0" encoding="UTF-8"?>
<svg width="15px" height="16px" viewBox="0 0 15 16" version="1.1" xmlns="http://www.w3.org/2000/svg" xmlns:xlink="http://www.w3.org/1999/xlink">
    <!-- Generator: sketchtool 41.2 (35397) - http://www.bohemiancoding.com/sketch -->
    <title>F59769EE-383A-43F4-9F80-AA1B795C7708</title>
    <desc>Created with sketchtool.</desc>
    <defs></defs>
    <g id="Symbols" stroke="none" stroke-width="1" fill="none" fill-rule="evenodd">
        <g id="Searched-Bar" transform="translate(-10.000000, -10.000000)" fill="#89A19D">
            <g id="Search-Bar">
                <path d="M19.1781535,10 C15.9675285,10 13.3562785,12.67456 13.3562785,15.9616 C13.3562785,17.36448 13.8344035,18.65344 14.6294035,19.67296 L10.3087785,23.68512 C10.2862785,23.7056 10.2637785,23.728 10.2437785,23.75168 C9.89502852,24.14528 9.92377852,24.75328 10.3087785,25.1104 C10.6931535,25.46752 11.2869035,25.43744 11.6356535,25.04384 L15.5537785,20.61952 C16.5494035,21.43296 17.8081535,21.9232 19.1781535,21.9232 C22.3881535,21.9232 25.0000285,19.24928 25.0000285,15.9616 C25.0000285,12.67456 22.3881535,10 19.1781535,10 L19.1781535,10 Z M19.1781535,20.64192 C16.6575285,20.64192 14.6075285,18.54272 14.6075285,15.9616 C14.6075285,13.38112 16.6575285,11.28128 19.1781535,11.28128 C21.6981535,11.28128 23.7487785,13.38112 23.7487785,15.9616 C23.7487785,18.54272 21.6981535,20.64192 19.1781535,20.64192 L19.1781535,20.64192 Z" id="Imported-Layers-Copy" transform="translate(17.500014, 17.679903) scale(-1, 1) translate(-17.500014, -17.679903) "></path>
            </g>
        </g>
    </g>
</svg>