<?xml version="1.0" encoding="UTF-8"?>
<svg width="18px" height="18px" viewBox="0 0 18 18" version="1.1" xmlns="http://www.w3.org/2000/svg" xmlns:xlink="http://www.w3.org/1999/xlink">
    <!-- Generator: sketchtool 41.2 (35397) - http://www.bohemiancoding.com/sketch -->
    <title>DA25F092-F4D4-479C-B323-C3C0D2AB313A</title>
    <desc>Created with sketchtool.</desc>
    <defs></defs>
    <g id="Specs" stroke="#d2d5d5" stroke-width="1" fill="none" fill-rule="evenodd">
        <g id="Icons" transform="translate(-894.000000, -300.000000)" fill="#89A19D">
            <path d="M895.810687,309.75 L902.250187,316.1895 L910.500187,307.9395 L910.500187,303.3105 L908.689687,301.5 L904.060687,301.5 L895.810687,309.75 Z M902.250188,318 C902.058188,318 901.866188,317.9265 901.719938,317.78025 L894.219938,310.28025 C893.926687,309.987 893.926687,309.513 894.219938,309.21975 L903.219938,300.21975 C903.360188,300.07875 903.550687,300 903.750188,300 L909.000188,300 C909.199687,300 909.389437,300.07875 909.530437,300.21975 L911.780437,302.46975 C911.920687,302.61 912.000188,302.80125 912.000188,303 L912.000188,308.25 C912.000188,308.44875 911.920687,308.64 911.780437,308.78025 L902.780437,317.78025 C902.634188,317.9265 902.442188,318 902.250188,318 Z M906.5,308 C907.880712,308 909,306.880712 909,305.5 C909,304.119288 907.880712,303 906.5,303 C905.119288,303 904,304.119288 904,305.5 C904,306.880712 905.119288,308 906.5,308 Z M906.5,304 C905.673,304 905,304.673 905,305.5 C905,306.327 905.673,307 906.5,307 C907.327,307 908,306.327 908,305.5 C908,304.673 907.327,304 906.5,304 Z" id="tag"></path>
        </g>
    </g>
</svg>