<?xml version="1.0" encoding="UTF-8"?>
<svg width="24px" height="20px" viewBox="0 0 24 20" version="1.1" xmlns="http://www.w3.org/2000/svg" xmlns:xlink="http://www.w3.org/1999/xlink">
    <!-- Generator: Sketch 41.2 (35397) - http://www.bohemiancoding.com/sketch -->
    <title>Twitter Icon</title>
    <desc>Created with Sketch.</desc>
    <defs></defs>
    <g id="Symbols" stroke="none" stroke-width="1" fill="none" fill-rule="evenodd">
        <g id="Main-Nav" transform="translate(-908.000000, -4.000000)" fill="#4C5859">
            <g transform="translate(0.000000, 2.000000)" id="Twitter-Icon">
                <path d="M929.512,7.001 L929.512,7.665 C929.512,14.346 924.575,22.004 915.541,22.004 C912.784,22.004 910.182,21.184 908,19.738 C908.383,19.777 908.766,19.816 909.187,19.816 C911.484,19.816 913.589,18.996 915.273,17.667 C913.129,17.628 911.292,16.183 910.68,14.151 C910.986,14.229 911.292,14.229 911.598,14.229 C912.058,14.229 912.479,14.151 912.9,14.034 C910.641,13.564 908.957,11.533 908.957,9.072 L908.957,8.994 C909.608,9.384 910.373,9.58 911.177,9.619 C909.876,8.72 908.995,7.157 908.995,5.438 C908.995,4.501 909.225,3.641 909.646,2.898 C912.058,5.946 915.694,7.978 919.789,8.173 C919.713,7.821 919.675,7.431 919.675,7.04 C919.675,4.266 921.857,2 924.575,2 C925.991,2 927.254,2.625 928.172,3.602 C929.283,3.367 930.355,2.938 931.311,2.391 C930.929,3.563 930.163,4.54 929.168,5.165 C930.163,5.047 931.119,4.774 932,4.383 C931.311,5.399 930.469,6.298 929.512,7.001"></path>
            </g>
        </g>
    </g>
</svg>