<?xml version="1.0" encoding="UTF-8" standalone="no"?>
<svg width="199px" height="31px" viewBox="0 0 199 31" version="1.1" xmlns="http://www.w3.org/2000/svg" xmlns:xlink="http://www.w3.org/1999/xlink">
    <!-- Generator: sketchtool 41.2 (35397) - http://www.bohemiancoding.com/sketch -->
    <title>5844319F-1FD5-4182-8CBE-3B1017BF85E8</title>
    <desc>Created with sketchtool.</desc>
    <defs>
        <path d="M35.2731377,930.551174 C26.8517991,930.551174 20,923.698826 20,915.275812 C20,906.852797 26.8517991,900 35.2731377,900 C43.6949255,900 50.5462754,906.852797 50.5462754,915.275812 C50.5462754,923.698826 43.6949255,930.551174 35.2731377,930.551174 Z M35.2731377,901.224275 C27.5265124,901.224275 21.2240971,907.527609 21.2240971,915.275812 C21.2240971,923.023565 27.5265124,929.326899 35.2731377,929.326899 C43.0202122,929.326899 49.3226275,923.023565 49.3226275,915.275812 C49.3226275,907.527609 43.0202122,901.224275 35.2731377,901.224275 Z M215.038418,907.795377 C212.932971,907.795377 211.220133,909.508464 211.220133,911.614217 C211.220133,913.719971 212.932971,915.433058 215.038418,915.433058 C217.143865,915.433058 218.856702,913.719971 218.856702,911.614217 C218.856702,909.508464 217.143865,907.795377 215.038418,907.795377 Z M215.038418,914.959072 C213.194411,914.959072 211.694499,913.458493 211.694499,911.614217 C211.694499,909.769942 213.194411,908.269362 215.038418,908.269362 C216.882424,908.269362 218.382786,909.769942 218.382786,911.614217 C218.382786,913.458493 216.882424,914.959072 215.038418,914.959072 Z M31.2280023,911.911188 C31.2280023,911.559406 30.942754,911.274116 30.5910226,911.274116 C30.2392912,911.274116 29.9540429,911.559406 29.9540429,911.911188 L29.9540429,916.079116 L26.7228758,911.541435 C26.5620587,911.315899 26.2741151,911.219754 26.0104289,911.304217 C25.7462935,911.388681 25.5675079,911.633986 25.5675079,911.911188 L25.5675079,918.072101 C25.5675079,918.423884 25.852307,918.708725 26.2040384,918.708725 C26.5557698,918.708725 26.8410181,918.423884 26.8410181,918.072101 L26.8410181,913.903725 L30.0721851,918.441406 C30.193921,918.61258 30.3888781,918.709174 30.5910226,918.709174 C30.6557088,918.709174 30.7208442,918.69929 30.7850813,918.678623 C31.0487675,918.594609 31.2280023,918.348855 31.2280023,918.072101 L31.2280023,911.911188 Z M215.594989,911.846043 C216.151111,911.751246 216.533837,911.329826 216.533837,910.774522 C216.533837,910.141942 216.03746,909.682783 215.352865,909.682783 L213.804887,909.682783 C213.660242,909.682783 213.542998,909.800043 213.542998,909.94471 L213.542998,913.283725 C213.542998,913.427942 213.660242,913.545203 213.804887,913.545203 C213.949084,913.545203 214.066327,913.427942 214.066327,913.283725 L214.066327,911.866261 L214.96879,911.866261 L216.075643,913.434681 C216.126404,913.506565 216.207262,913.545203 216.289467,913.545203 C216.341576,913.545203 216.394582,913.529928 216.440402,913.49758 C216.558544,913.414014 216.586395,913.250928 216.503291,913.132768 L215.594989,911.846043 Z M214.066327,911.342855 L214.066327,910.206638 L215.352865,910.206638 C215.746372,910.206638 216.010508,910.43487 216.010508,910.774522 C216.010508,911.114174 215.746372,911.342855 215.352865,911.342855 L214.066327,911.342855 Z M192.80612,919.272565 C192.24281,919.149464 191.886587,919.612217 191.472865,919.897957 C190.441928,920.610058 189.244783,920.981609 187.992835,920.991942 C188.009456,920.992391 188.026526,920.992841 188.043147,920.99329 C185.758914,920.938928 183.683115,919.663435 182.764481,917.534768 C181.864264,915.449681 182.317966,912.968333 183.88481,911.325783 C185.44851,909.686377 187.88772,909.150841 190.013831,909.902029 C190.794108,910.177435 191.392905,910.631652 192.051896,911.106536 C192.89686,911.715304 194.001467,910.696348 193.342027,909.840478 C192.313336,908.505681 190.337262,907.741913 188.722352,907.578377 C186.46058,907.349246 184.159727,908.175014 182.545266,909.769942 C179.486596,912.79087 179.50726,917.838029 182.596926,920.832899 C185.575637,923.719942 190.285153,923.672319 193.243201,920.816725 C193.754402,920.320725 193.502844,919.42487 192.80612,919.272565 Z M177.599914,922.548232 C177.422476,922.67313 177.218984,922.733333 177.017738,922.733333 C176.700596,922.733333 176.388395,922.584174 176.191192,922.305174 L171.916959,916.248942 L168.433336,916.248942 L168.433336,921.722464 C168.433336,922.280913 167.980533,922.733333 167.422614,922.733333 C166.864695,922.733333 166.411892,922.280913 166.411892,921.722464 L166.411892,908.82871 C166.411892,908.27071 166.864695,907.817841 167.422614,907.817841 L173.401149,907.817841 C176.043851,907.817841 177.961977,909.59113 177.961977,912.033841 C177.961977,914.177783 176.484077,915.804609 174.335506,916.170768 L177.842488,921.139754 C178.164571,921.595768 178.055862,922.226551 177.599914,922.548232 Z M168.433336,914.227203 L173.401149,914.227203 C174.919928,914.227203 175.940533,913.345725 175.940533,912.033841 C175.940533,910.721507 174.919928,909.83958 173.401149,909.83958 L168.433336,909.83958 L168.433336,914.227203 Z M206.405501,920.711594 L198.806217,920.711594 L198.806217,916.25658 L204.095214,916.25658 C204.653582,916.25658 205.105937,915.80371 205.105937,915.24571 C205.105937,914.687261 204.653582,914.234841 204.095214,914.234841 L198.806217,914.234841 L198.806217,909.83958 L206.405501,909.83958 C206.96342,909.83958 207.416223,909.387159 207.416223,908.82871 C207.416223,908.27071 206.96342,907.817841 206.405501,907.817841 L197.795494,907.817841 C197.237576,907.817841 196.784772,908.27071 196.784772,908.82871 L196.784772,921.722464 C196.784772,922.280913 197.237576,922.733333 197.795494,922.733333 L206.405501,922.733333 C206.96342,922.733333 207.416223,922.280913 207.416223,921.722464 C207.416223,921.164014 206.96342,920.711594 206.405501,920.711594 Z M116.091395,920.711594 L108.492111,920.711594 L108.492111,916.25658 L113.782007,916.25658 C114.339926,916.25658 114.792729,915.80371 114.792729,915.24571 C114.792729,914.687261 114.339926,914.234841 113.782007,914.234841 L108.492111,914.234841 L108.492111,909.83958 L116.091395,909.83958 C116.649314,909.83958 117.102117,909.387159 117.102117,908.82871 C117.102117,908.27071 116.649314,907.817841 116.091395,907.817841 L107.481388,907.817841 C106.92347,907.817841 106.470666,908.27071 106.470666,908.82871 L106.470666,921.722464 C106.470666,922.280913 106.92347,922.733333 107.481388,922.733333 L116.091395,922.733333 C116.649314,922.733333 117.102117,922.280913 117.102117,921.722464 C117.102117,921.164014 116.649314,920.711594 116.091395,920.711594 Z M103.473088,915.275812 C103.473088,911.563449 100.883842,907.817841 95.0980181,907.817841 L92.1089752,907.817841 C91.5506072,907.817841 91.0982528,908.27071 91.0982528,908.82871 L91.0982528,921.722464 C91.0982528,922.280913 91.5506072,922.733333 92.1089752,922.733333 L95.0980181,922.733333 C100.342544,922.733333 103.473088,919.94558 103.473088,915.275812 Z M93.1196975,909.83958 L95.0980181,909.83958 C98.958079,909.83958 101.451643,911.973638 101.451643,915.275812 C101.451643,918.831826 99.2550068,920.711594 95.0980181,920.711594 L93.1196975,920.711594 L93.1196975,909.83958 Z M128.664332,910.789348 C129.144088,911.133493 129.843508,910.918739 130.047898,910.364783 C130.435117,909.315275 128.654,908.526348 127.942901,908.199725 C126.652321,907.606232 125.204966,907.408551 123.802084,907.629145 C121.545702,907.984072 119.570975,909.663913 119.787494,912.098536 C119.913722,913.522739 120.834603,914.599652 122.079813,915.230435 C123.392853,915.895812 124.848743,916.006333 126.22602,916.465942 C127.312659,916.828507 128.760912,917.528928 128.638727,918.887536 C128.511151,920.307246 126.928135,920.854014 125.710777,920.963188 C124.415704,921.079551 123.196099,920.711594 122.069032,920.083507 C121.61488,919.830565 121.215533,919.459913 120.760483,919.222696 C120.222779,918.942797 119.541777,919.258638 119.438009,919.865609 C119.355354,920.349928 119.657673,920.654087 119.993233,920.935783 C120.467598,921.33429 120.977901,921.684725 121.518749,921.986638 C122.662438,922.624159 123.950323,923.028507 125.267856,923.010087 C127.585779,922.97729 130.204223,921.874768 130.619743,919.33771 C131.006512,916.97542 129.12567,915.362971 127.092546,914.626609 C125.494257,914.047493 121.20026,913.908667 121.843977,911.26558 C122.180885,909.879565 123.905851,909.545304 125.114226,909.561029 C125.813646,909.570464 126.501835,909.723667 127.150944,909.980203 C127.612731,910.163058 128.311702,910.420493 128.664332,910.789348 C129.072664,911.082275 128.669273,910.79429 128.664332,910.789348 Z M162.641673,916.708101 L162.641673,908.82871 C162.641673,908.27071 162.188869,907.817841 161.63095,907.817841 C161.073032,907.817841 160.620228,908.27071 160.620228,908.82871 L160.620228,916.708101 C160.620228,919.070391 158.768585,920.991942 156.492887,920.991942 C154.21674,920.991942 152.365097,919.070391 152.365097,916.708101 L152.365097,908.82871 C152.365097,908.27071 151.912293,907.817841 151.354375,907.817841 C150.796456,907.817841 150.343652,908.27071 150.343652,908.82871 L150.343652,916.708101 C150.343652,920.185043 153.102251,923.013681 156.492887,923.013681 C159.883524,923.013681 162.641673,920.185043 162.641673,916.708101 Z M147.560348,915.275812 C147.560348,911.009043 144.266291,907.537493 140.217113,907.537493 C136.168384,907.537493 132.874327,911.009043 132.874327,915.275812 C132.874327,919.54258 136.168384,923.013681 140.217113,923.013681 C144.266291,923.013681 147.560348,919.54258 147.560348,915.275812 Z M145.538903,915.275812 C145.538903,918.427928 143.151352,920.991942 140.217113,920.991942 C137.282874,920.991942 134.895772,918.427928 134.895772,915.275812 C134.895772,912.123696 137.282874,909.559232 140.217113,909.559232 C143.151352,909.559232 145.538903,912.123696 145.538903,915.275812 Z M88.1181941,915.275812 C88.1181941,911.009043 84.8241377,907.537493 80.7749594,907.537493 C76.725781,907.537493 73.4317246,911.009043 73.4317246,915.275812 C73.4317246,919.54258 76.725781,923.013681 80.7749594,923.013681 C84.8241377,923.013681 88.1181941,919.54258 88.1181941,915.275812 Z M86.0967494,915.275812 C86.0967494,918.427928 83.7091986,920.991942 80.7749594,920.991942 C77.8407201,920.991942 75.4531693,918.427928 75.4531693,915.275812 C75.4531693,912.123696 77.8407201,909.559232 80.7749594,909.559232 C83.7091986,909.559232 86.0967494,912.123696 86.0967494,915.275812 Z M69.3762573,922.733333 C69.0730406,922.733333 68.7783589,922.596304 68.5829526,922.349203 L60.2042889,911.739565 L60.2042889,921.722464 C60.2042889,922.280913 59.7514853,922.733333 59.1935666,922.733333 C58.6356479,922.733333 58.1828442,922.280913 58.1828442,921.722464 L58.1828442,908.82871 C58.1828442,908.398304 58.4555147,908.015072 58.8620497,907.874 C59.2676862,907.733377 59.7200406,907.864116 59.9868713,908.20242 L68.365535,918.812058 L68.365535,908.82871 C68.365535,908.27071 68.8183386,907.817841 69.3762573,907.817841 C69.9341761,907.817841 70.3869797,908.27071 70.3869797,908.82871 L70.3869797,921.722464 C70.3869797,922.15287 70.1147585,922.536101 69.7077743,922.677623 C69.5990655,922.715362 69.4872122,922.733333 69.3762573,922.733333 Z M35.6028578,908.268014 C35.6028578,908.070333 35.4429391,907.909942 35.2448375,907.909942 C35.0471851,907.909942 34.8863679,908.070333 34.8863679,908.268014 L34.8863679,922.283159 C34.8863679,922.480841 35.0471851,922.641232 35.2448375,922.641232 C35.4429391,922.641232 35.6028578,922.480841 35.6028578,922.283159 L35.6028578,908.268014 Z M43.2897381,914.558768 C42.66893,914.336826 42.0081422,914.283362 41.3855372,914.075348 C40.9754086,913.938319 40.5482099,913.73929 40.5360813,913.256768 C40.5230542,912.73471 41.3177065,912.429203 41.8590045,912.38787 C42.6073883,912.330812 43.3014176,912.569377 43.9312099,912.958899 C44.5394402,913.34887 45.0879255,912.466942 44.5479752,912.030246 C44.0659729,911.639826 43.4213567,911.372957 42.8180677,911.253449 C41.620474,911.016232 40.0118533,911.275464 39.4409074,912.495696 C38.9899007,913.460739 39.4409074,914.52642 40.351456,915.030058 C40.9448623,915.358478 41.6065485,915.468551 42.260149,915.610971 C42.7452957,915.716551 43.5772325,915.907043 43.7995914,916.424159 C44.0421648,916.988449 43.3840722,917.37213 42.9402528,917.494783 C42.296535,917.672696 41.6442822,917.616087 41.0248217,917.377971 C40.7341828,917.266551 40.4552235,917.121884 40.1951309,916.950261 C40.0127517,916.829855 39.855079,916.682043 39.619693,916.700464 C39.0909729,916.741348 38.9728307,917.364942 39.3164763,917.692464 C40.1115779,918.450391 41.3626275,918.858783 42.4434266,918.800826 C43.5992438,918.738377 44.939237,918.168246 45.101851,916.875681 C45.2496411,915.700826 44.2964176,914.918188 43.2897381,914.558768 Z" id="path-1"></path>
    </defs>
    <g id="Assets" stroke="none" stroke-width="1" fill="none" fill-rule="evenodd">
        <g transform="translate(-20.000000, -900.000000)">
            <mask id="mask-2" fill="white">
                <use xlink:href="#path-1"></use>
            </mask>
            <use id="Combined-Shape" fill="#FFFFFF" xlink:href="#path-1"></use>
        </g>
    </g>
</svg>